<?xml version="1.0" encoding="utf-8" standalone="no"?>
<!DOCTYPE svg PUBLIC "-//W3C//DTD SVG 1.1//EN"
  "http://www.w3.org/Graphics/SVG/1.1/DTD/svg11.dtd">
<!-- Created with matplotlib (https://matplotlib.org/) -->
<svg height="84.28pt" version="1.1" viewBox="0 0 113.176 84.28" width="113.176pt" xmlns="http://www.w3.org/2000/svg" xmlns:xlink="http://www.w3.org/1999/xlink">
 <metadata>
  <rdf:RDF xmlns:cc="http://creativecommons.org/ns#" xmlns:dc="http://purl.org/dc/elements/1.1/" xmlns:rdf="http://www.w3.org/1999/02/22-rdf-syntax-ns#">
   <cc:Work>
    <dc:type rdf:resource="http://purl.org/dc/dcmitype/StillImage"/>
    <dc:date>2020-08-18T10:22:33.040694</dc:date>
    <dc:format>image/svg+xml</dc:format>
    <dc:creator>
     <cc:Agent>
      <dc:title>Matplotlib v3.3.0, https://matplotlib.org/</dc:title>
     </cc:Agent>
    </dc:creator>
   </cc:Work>
  </rdf:RDF>
 </metadata>
 <defs>
  <style type="text/css">*{stroke-linecap:butt;stroke-linejoin:round;}</style>
 </defs>
 <g id="figure_1">
  <g id="patch_1">
   <path d="M 0 84.28 
L 113.176 84.28 
L 113.176 0 
L 0 0 
z
" style="fill:#ffffff;"/>
  </g>
  <g id="axes_1">
   <g id="line2d_1">
    <path clip-path="url(#pa4a0633347)" d="M 59.82074 46.4744 
L 96.18154 46.4744 
" style="fill:none;stroke:#000000;stroke-linecap:square;stroke-width:2;"/>
   </g>
   <g id="text_1">
    <g clip-path="url(#pa4a0633347)">
     <!-- $q$ -->
     <g transform="translate(29.94034 50.925377)scale(0.1625 -0.1625)">
      <defs>
       <path d="M 49.125 46.6875 
L 50.59375 54.6875 
L 68.21875 54.6875 
L 53.515625 -20.796875 
L 35.890625 -20.796875 
L 41.5 7.90625 
Q 37.59375 3.125 33.203125 0.84375 
Q 28.8125 -1.421875 23.578125 -1.421875 
Q 14.359375 -1.421875 8.984375 4.4375 
Q 3.609375 10.296875 3.609375 20.40625 
Q 3.609375 26.703125 5.484375 32.65625 
Q 7.375 38.625 10.890625 43.5 
Q 15.328125 49.65625 20.921875 52.828125 
Q 26.515625 56 32.90625 56 
Q 38.53125 56 42.453125 53.734375 
Q 46.390625 51.46875 49.125 46.6875 
z
M 30.71875 11.28125 
Q 37.453125 11.28125 41.671875 17.484375 
Q 45.90625 23.6875 45.90625 33.6875 
Q 45.90625 38.234375 43.53125 40.765625 
Q 41.15625 43.3125 36.921875 43.3125 
Q 30.28125 43.3125 25.984375 37.1875 
Q 21.6875 31.0625 21.6875 21.484375 
Q 21.6875 16.5 24 13.890625 
Q 26.3125 11.28125 30.71875 11.28125 
z
" id="DejaVuSans-BoldOblique-113"/>
      </defs>
      <use xlink:href="#DejaVuSans-BoldOblique-113"/>
     </g>
    </g>
   </g>
  </g>
 </g>
 <defs>
  <clipPath id="pa4a0633347">
   <rect height="63.6314" width="85.44788" x="15.27876" y="10.1136"/>
  </clipPath>
 </defs>
</svg>
